<svg width="32" height="32" viewBox="0 0 32 32" fill="none" xmlns="http://www.w3.org/2000/svg">
<path d="M16.0001 2.66666C14.2491 2.66666 12.5153 3.01153 10.8976 3.6816C9.27996 4.35166 7.81011 5.33379 6.57199 6.5719C4.07151 9.07238 2.66675 12.4638 2.66675 16C2.66675 21.8933 6.49341 26.8933 11.7867 28.6667C12.4534 28.7733 12.6667 28.36 12.6667 28C12.6667 27.6933 12.6667 26.8533 12.6667 25.7467C8.97341 26.5467 8.18675 23.96 8.18675 23.96C7.57341 22.4133 6.70675 22 6.70675 22C5.49341 21.1733 6.80008 21.2 6.80008 21.2C8.13341 21.2933 8.84008 22.5733 8.84008 22.5733C10.0001 24.6 11.9601 24 12.7201 23.68C12.8401 22.8133 13.1867 22.2267 13.5601 21.8933C10.6001 21.56 7.49341 20.4133 7.49341 15.3333C7.49341 13.8533 8.00008 12.6667 8.86675 11.72C8.73341 11.3867 8.26675 9.99999 9.00008 8.19999C9.00008 8.19999 10.1201 7.83999 12.6667 9.55999C13.7201 9.26666 14.8667 9.11999 16.0001 9.11999C17.1334 9.11999 18.2801 9.26666 19.3334 9.55999C21.8801 7.83999 23.0001 8.19999 23.0001 8.19999C23.7334 9.99999 23.2667 11.3867 23.1334 11.72C24.0001 12.6667 24.5067 13.8533 24.5067 15.3333C24.5067 20.4267 21.3867 21.5467 18.4134 21.88C18.8934 22.2933 19.3334 23.1067 19.3334 24.3467C19.3334 26.1333 19.3334 27.5733 19.3334 28C19.3334 28.36 19.5467 28.7867 20.2267 28.6667C25.5201 26.88 29.3334 21.8933 29.3334 16C29.3334 14.249 28.9885 12.5152 28.3185 10.8975C27.6484 9.27987 26.6663 7.81001 25.4282 6.5719C24.1901 5.33379 22.7202 4.35166 21.1025 3.6816C19.4849 3.01153 17.751 2.66666 16.0001 2.66666Z" fill="#E2E8F0" fill-opacity="0.75"/>
</svg>
