<svg width="32" height="32" viewBox="0 0 32 32" fill="none" xmlns="http://www.w3.org/2000/svg">
<path d="M26.6667 24H24.0001V12.3333L16.0001 17.3333L8.00008 12.3333V24H5.33341V8.00001H6.93341L16.0001 13.6667L25.0667 8.00001H26.6667M26.6667 5.33334H5.33341C3.85341 5.33334 2.66675 6.52001 2.66675 8.00001V24C2.66675 24.7073 2.9477 25.3855 3.4478 25.8856C3.94789 26.3857 4.62617 26.6667 5.33341 26.6667H26.6667C27.374 26.6667 28.0523 26.3857 28.5524 25.8856C29.0525 25.3855 29.3334 24.7073 29.3334 24V8.00001C29.3334 6.52001 28.1334 5.33334 26.6667 5.33334Z" fill="#E2E8F0" fill-opacity="0.75"/>
</svg>
