<svg width="26" height="52" viewBox="0 0 26 52" fill="none" xmlns="http://www.w3.org/2000/svg">
    <path
        d="M18.2239 0.291848C17.6319 0.106316 17.1983 0.0354386 16.9822 0C16.7022 0.00972818 16.2512 0.0479466 15.6348 0.147314C15.0525 0.241122 14.5786 0.352997 14.2465 0.476685C13.915 0.600374 13.4522 0.781041 12.9033 1.08053C11.0556 2.04641 9.27948 3.4584 7.53604 5.28662C5.79815 7.14889 4.1499 9.34818 2.66495 11.9081C1.81303 13.3812 1.16263 14.5757 0.678299 15.4978C0.200223 16.4533 -0.0249166 17.0175 0.00218359 17.1885C0.0633327 17.5651 0.239137 17.7833 0.603947 17.8646C0.939572 17.9862 1.24254 17.9021 1.4781 17.6179C1.54064 17.5727 1.65043 17.3796 1.86932 16.9925C2.09863 16.6743 2.31195 16.2532 2.55377 15.7925C3.93032 13.2152 5.17901 11.1507 6.29916 9.59833C7.39081 8.08697 8.57279 6.7007 9.92016 5.46382C11.5705 3.93161 13.1277 2.90736 14.58 2.32089C16.0316 1.73511 17.2928 1.70731 18.2886 2.21457C19.0564 2.6176 19.7207 3.24855 20.2474 4.11298C20.7443 5.01631 21.1271 6.07948 21.3314 7.34693C21.5253 8.54629 21.5135 9.7783 21.3641 11.0326C21.1869 12.3271 20.8485 13.7169 20.3106 15.1747C19.9118 16.1885 19.5081 17.1676 19.0293 18.1238C18.5512 19.0792 18.0273 19.9728 17.4582 20.8025C16.3776 22.3834 15.2589 23.7238 14.0894 24.7564C12.897 25.8626 11.7699 26.5019 10.7193 26.7416C10.0397 26.8862 9.5887 26.9244 9.36078 26.8202C9.10507 26.7562 8.95775 26.4984 8.92579 26.0822C8.81461 25.397 9.18498 24.4235 10.0299 23.1269C10.8812 21.865 12.0402 20.5524 13.4501 19.2703C13.8796 18.8847 14.275 18.5046 14.6418 18.1641C15.0087 17.8236 15.2214 17.6137 15.2784 17.5338C15.5139 17.2503 15.5327 16.9307 15.3402 16.6103C15.1137 16.2956 14.8065 16.1336 14.464 16.1892C14.3611 16.2059 14.1665 16.3074 13.8803 16.4943C13.5995 16.7153 13.3188 16.9362 13.0096 17.1975C10.729 19.1828 9.09395 21.0284 8.10931 22.769C7.06213 24.5549 6.80364 26.003 7.28936 27.0495C7.46377 27.4782 7.6903 27.793 7.94045 28.0341L7.98006 28.0626C8.22952 28.3037 8.53666 28.4649 8.94177 28.5754C9.24335 28.7026 9.49976 28.7665 9.73949 28.7276C9.95073 28.729 10.3614 28.6623 10.9729 28.5282C11.5205 28.4399 11.9207 28.3051 12.2522 28.1814C12.5496 28.0633 12.904 27.8652 13.3508 27.5824C15.2047 26.4394 16.994 24.6737 18.6436 22.2632C20.2981 19.8874 21.5378 17.3316 22.4196 14.5181C22.8602 13.1109 23.1402 11.8004 23.2604 10.5858C23.3521 9.41141 23.2958 8.18982 23.0964 6.95711C22.8143 5.20949 22.2285 3.75789 21.4127 2.62385C20.5629 1.49607 19.4886 0.719892 18.2239 0.291848ZM9.09395 8.61994L8.82017 8.66442C8.64853 8.69221 8.49358 8.82215 8.39004 9.05007C8.2865 9.27799 8.10028 9.87003 7.86193 10.7873C7.73408 11.3001 7.5541 11.9269 7.39081 12.6565C7.16428 13.4313 6.92524 14.3485 6.67508 15.4082C5.27769 20.9061 4.25274 25.0086 3.6343 27.7096C2.98181 30.4161 2.68927 31.8698 2.72263 32.0748C2.74486 32.2124 2.76154 32.3152 2.85187 32.441C2.94221 32.5668 3.02212 32.6245 3.13608 32.6759C3.36886 32.8142 3.55161 32.8552 3.68295 32.7989C3.81984 32.7766 3.94561 32.6863 4.1235 32.4813C4.18117 32.4021 4.37226 31.8441 4.69191 30.7726C4.98236 29.7421 5.29645 28.4253 5.68141 26.8869C5.81483 26.4088 5.93713 25.8619 6.11154 25.2004C6.25746 24.5799 6.43188 23.919 6.60073 23.2235C6.89258 21.981 7.24141 20.6594 7.57981 19.2696C7.92308 17.9132 8.2198 16.7055 8.49914 15.6055C8.90703 13.9934 9.26836 12.5286 9.55952 11.2869C9.85137 10.0444 9.99173 9.38917 9.97505 9.28633C9.93614 9.0466 9.83469 8.85203 9.67556 8.73738C9.64082 8.74294 9.64082 8.74294 9.63526 8.70819C9.48169 8.62759 9.29963 8.58729 9.09395 8.61994Z"
        fill="#38BDF8" />
    <path
        d="M20.9012 51.8083C21.0714 51.9917 21.2882 52.0271 21.562 51.9827C21.7677 51.9493 21.9623 51.8479 22.1346 51.6088C22.2208 51.4893 22.2562 51.2732 22.2805 50.9876C22.2701 50.7083 22.2103 50.1204 22.1464 49.2872C21.8608 47.0838 21.9011 44.7219 22.1937 42.1794C22.4918 39.6702 23.1241 36.4049 24.0921 32.3816C24.6806 29.9315 25.0371 28.2221 25.0934 27.2638C25.1351 26.8705 25.1483 26.5168 25.1038 26.2431C25.0378 25.8317 24.8849 25.5398 24.6806 25.362C24.3964 25.1264 24.0608 25.0055 23.7182 25.0604C23.3465 25.1556 22.958 25.3592 22.5911 25.6997C21.9776 26.2556 21.0763 27.4202 19.9263 29.2234C18.7471 31.0655 17.6533 32.9993 16.5763 35.0367C16.3345 35.4974 16.1496 35.8789 15.9884 36.186C15.7932 36.4987 15.6778 36.6579 15.6778 36.6579C15.6438 36.6634 15.6563 36.521 15.7376 36.1562C15.7855 35.7969 15.8613 35.3981 15.9551 34.8908C16.5415 31.7729 16.9592 29.3505 17.1676 27.5946C17.3761 25.8386 17.4456 24.5267 17.3017 23.6359C17.2239 23.1564 17.1287 22.7853 16.948 22.5331C16.7667 22.2816 16.5221 22.0745 16.249 21.9077C16.0218 21.8042 15.7362 21.7799 15.4624 21.8236C15.051 21.8903 14.6279 22.0995 14.1241 22.4615C13.2819 23.1251 12.3299 24.1925 11.2959 25.6253C9.80194 27.694 8.37466 30.174 7.00228 32.9973C5.60141 35.8595 4.34229 38.9454 3.22423 42.2544C3.00465 42.852 2.83649 43.3363 2.6864 43.7116C2.53631 44.0875 2.42721 44.2807 2.41609 44.2126C2.3195 44.052 2.38552 43.3738 2.54047 42.1536C2.67181 41.0078 2.90112 39.6 3.20617 38.0038C3.34723 37.1373 3.55708 36.2597 3.75581 35.314C3.93162 34.4419 4.13591 33.5302 4.34576 32.6526C4.63136 31.3761 4.77867 30.5443 4.75157 30.1615C4.69668 29.8189 4.48682 29.607 4.08727 29.5305C3.80237 29.5062 3.5682 29.5792 3.4188 29.7438C3.23535 29.9141 3.05677 30.3296 2.88235 30.9911C2.76631 31.3608 2.66694 31.834 2.54395 32.3809C2.39316 32.9681 2.21875 33.6289 2.06587 34.4266C1.57599 36.6148 1.21257 38.5014 0.987425 40.1545C0.728236 41.8139 0.554517 43.353 0.507265 44.8018C0.454455 46.2166 0.472522 47.1978 0.571889 47.8141L0.594125 47.9517C0.693492 48.5681 0.965884 48.9461 1.38698 49.1594C1.58015 49.2685 1.72816 49.315 1.83101 49.2984C1.90536 49.3213 2.07074 49.2595 2.25974 49.124C2.54603 48.937 2.83302 48.5389 3.12139 47.9302C3.37572 47.3263 3.86699 46.0172 4.52782 44.0124C5.8189 40.2532 7.11346 36.9511 8.48584 34.1285C9.82348 31.3115 11.2223 28.8711 12.7156 26.8017C13.2562 26.0117 13.8128 25.3244 14.352 24.7449C14.8912 24.1661 15.2241 23.8311 15.395 23.8033C15.6695 23.7589 15.6584 24.7803 15.4311 26.8552C15.1699 28.9364 14.6994 31.6839 14.0546 35.0923C13.4514 38.1074 13.1102 40.1309 13.0025 41.2024C12.8941 42.2746 13.0394 42.9541 13.3972 43.2126C13.5675 43.3961 13.8183 43.426 14.0865 43.3474C14.361 43.303 14.5556 43.2015 14.7279 42.9625C14.7849 42.8833 15.0038 42.4962 15.3498 41.8076C15.6611 41.1245 16.0301 40.3623 16.4568 39.5201C17.2357 37.8127 17.9501 36.3612 18.572 35.2063C19.1598 34.0569 19.8394 32.8221 20.5871 31.5769C21.1687 30.6041 21.7316 29.7397 22.2778 28.9836C22.7947 28.2679 23.0984 27.9726 23.1206 28.1095C23.1318 28.1783 23.0678 28.4347 23.0025 28.9023C22.9031 29.3749 22.7753 29.8877 22.6578 30.4693C22.3201 31.8597 22.0575 33.0619 21.8351 34.082C21.585 35.1416 21.3862 36.0881 21.2334 36.8858C20.8838 38.4187 20.6371 39.7237 20.5183 40.7271C20.3648 41.736 20.2508 42.7742 20.2112 43.8346C20.0993 45.751 20.0958 47.4743 20.248 49.0663C20.3648 50.6645 20.5829 51.5783 20.9012 51.8083Z"
        fill="#38BDF8" />
</svg>