<svg width="206" height="206" viewBox="0 0 206 206" fill="none" xmlns="http://www.w3.org/2000/svg">
<path d="M90.3123 176.571C89.6234 176.571 88.9375 176.556 88.2486 176.523C87.5627 176.489 86.8768 176.437 86.194 176.37C85.5111 176.303 84.8283 176.218 84.1485 176.117C83.4687 176.017 82.792 175.898 82.1183 175.767C81.4446 175.629 80.7739 175.48 80.1063 175.312C79.4387 175.145 78.7772 174.962 78.1188 174.761C77.4634 174.563 76.808 174.346 76.1617 174.114C75.5154 173.883 74.8753 173.636 74.2382 173.374C73.6041 173.108 72.9761 172.831 72.3543 172.535C71.7324 172.243 71.1197 171.932 70.513 171.609C69.9064 171.286 69.3089 170.944 68.7206 170.59C68.1292 170.237 67.55 169.868 66.9769 169.487C66.4068 169.106 65.8429 168.71 65.2911 168.298C64.7424 167.89 64.1968 167.466 63.6663 167.03C63.1359 166.594 62.6146 166.146 62.1086 165.683C61.5965 165.219 61.0996 164.747 60.6118 164.259C60.1272 163.771 59.6547 163.274 59.1913 162.765C58.731 162.253 58.2798 161.732 57.847 161.201C57.411 160.671 56.9873 160.128 56.5788 159.574C56.1673 159.022 55.771 158.461 55.39 157.888C55.0089 157.315 54.64 156.736 54.2895 156.144C53.9328 155.556 53.5944 154.955 53.2713 154.349C52.9482 153.742 52.6373 153.129 52.3446 152.504C52.052 151.883 51.7715 151.258 51.5093 150.62C51.2472 149.986 51.0003 149.343 50.7686 148.697C50.5339 148.048 50.3205 147.392 50.1223 146.734C49.9211 146.075 49.7382 145.414 49.5706 144.746C49.406 144.079 49.2535 143.408 49.1194 142.734C48.9853 142.058 48.8664 141.381 48.7658 140.701C48.6652 140.021 48.5829 139.335 48.5128 138.652C48.4488 137.97 48.3969 137.284 48.3634 136.595C48.3299 135.906 48.3116 135.22 48.3116 134.531V71.469C48.3116 70.7831 48.3299 70.0941 48.3634 69.4083C48.3969 68.7224 48.4488 68.0365 48.5128 67.3506C48.5829 66.6647 48.6652 65.9819 48.7658 65.3021C48.8664 64.6223 48.9853 63.9425 49.1194 63.2688C49.2535 62.5951 49.406 61.9214 49.5706 61.2538C49.7382 60.5893 49.9211 59.9247 50.1223 59.2663C50.3205 58.6078 50.5339 57.9554 50.7686 57.3092C51.0003 56.6599 51.2472 56.0197 51.5093 55.3826C51.7715 54.7485 52.052 54.1175 52.3446 53.4956C52.6373 52.8738 52.9482 52.261 53.2713 51.6514C53.5944 51.0447 53.9328 50.4473 54.2895 49.8589C54.64 49.2675 55.0089 48.6853 55.39 48.1152C55.771 47.5421 56.1673 46.9782 56.5788 46.4264C56.9873 45.8747 57.411 45.3321 57.847 44.8016C58.2798 44.2682 58.731 43.7469 59.1913 43.2378C59.6547 42.7287 60.1272 42.2288 60.6118 41.7441C61.0996 41.2564 61.5965 40.7839 62.1086 40.3205C62.6146 39.8602 63.1359 39.409 63.6663 38.9731C64.1968 38.5372 64.7424 38.1135 65.2911 37.705C65.8429 37.2934 66.4068 36.8972 66.9769 36.5161C67.55 36.132 68.1292 35.7662 68.7206 35.4095C69.3089 35.059 69.9064 34.7206 70.513 34.3944C71.1197 34.0713 71.7324 33.7604 72.3543 33.4677C72.9761 33.172 73.6041 32.8946 74.2382 32.6294C74.8753 32.3672 75.5154 32.1203 76.1617 31.8886C76.808 31.657 77.4634 31.4405 78.1188 31.2393C78.7772 31.0412 79.4387 30.8552 80.1063 30.6906C80.7739 30.523 81.4446 30.3705 82.1183 30.2395C82.792 30.1023 83.4687 29.9864 84.1485 29.8858C84.8283 29.7853 85.5111 29.6999 86.194 29.6328C86.8768 29.5658 87.5627 29.5139 88.2486 29.4804C88.9375 29.4469 89.6234 29.4286 90.3123 29.4286C90.9982 29.4286 91.6841 29.4469 92.3731 29.4804C93.0589 29.5139 93.7448 29.5658 94.4277 29.6328C95.1136 29.6999 95.7934 29.7853 96.4731 29.8858C97.1529 29.9864 97.8297 30.1023 98.5064 30.2395C99.1771 30.3705 99.8508 30.523 100.515 30.6906C101.183 30.8552 101.844 31.0412 102.503 31.2393C103.161 31.4405 103.814 31.657 104.46 31.8886C105.109 32.1203 105.749 32.3672 106.383 32.6294C107.021 32.8946 107.646 33.172 108.267 33.4677C108.889 33.7604 109.502 34.0713 110.109 34.3944C110.715 34.7206 111.313 35.059 111.904 35.4095C112.492 35.7662 113.075 36.132 113.645 36.5161C114.218 36.8972 114.779 37.2934 115.33 37.705C115.882 38.1135 116.425 38.5372 116.955 38.9731C117.486 39.409 118.007 39.8602 118.516 40.3205C119.025 40.7839 119.522 41.2564 120.01 41.7441C120.494 42.2288 120.97 42.7287 121.43 43.2378C121.891 43.7469 122.342 44.2682 122.778 44.8016C123.214 45.3321 123.637 45.8747 124.046 46.4264C124.454 46.9782 124.851 47.5421 125.232 48.1152C125.613 48.6853 125.982 49.2675 126.335 49.8589C126.689 50.4473 127.027 51.0447 127.35 51.6514C127.673 52.261 127.984 52.8738 128.277 53.4956C128.57 54.1175 128.85 54.7485 129.112 55.3826C129.374 56.0197 129.621 56.6599 129.856 57.3092C130.088 57.9554 130.304 58.6078 130.502 59.2663C130.7 59.9247 130.883 60.5893 131.051 61.2538C131.219 61.9214 131.368 62.5951 131.502 63.2688C131.636 63.9425 131.755 64.6223 131.856 65.3021C131.956 65.9819 132.042 66.6647 132.109 67.3506C132.176 68.0365 132.225 68.7224 132.261 69.4083C132.292 70.0941 132.31 70.7831 132.31 71.469V92.7772H125.311V71.469C125.311 70.8989 125.296 70.3258 125.268 69.7527C125.238 69.1796 125.195 68.6065 125.14 68.0365C125.085 67.4664 125.012 66.8994 124.93 66.3324C124.845 65.7654 124.747 65.2015 124.634 64.6375C124.524 64.0766 124.399 63.5157 124.259 62.9609C124.119 62.403 123.967 61.8543 123.802 61.3056C123.634 60.7569 123.454 60.2113 123.262 59.6717C123.067 59.1321 122.863 58.5987 122.644 58.0682C122.424 57.5378 122.192 57.0135 121.946 56.4953C121.702 55.977 121.443 55.4649 121.174 54.9619C120.903 54.4559 120.623 53.956 120.327 53.4652C120.034 52.9744 119.726 52.4897 119.406 52.0141C119.089 51.5355 118.76 51.0661 118.419 50.6088C118.077 50.1485 117.723 49.6943 117.361 49.2523C116.998 48.8103 116.623 48.3743 116.239 47.9506C115.855 47.5269 115.462 47.1123 115.053 46.7069C114.651 46.3014 114.236 45.9052 113.809 45.5211C113.386 45.137 112.953 44.762 112.511 44.3992C112.069 44.0334 111.615 43.6829 111.157 43.3415C110.697 43 110.227 42.6678 109.752 42.3507C109.276 42.0306 108.792 41.7258 108.301 41.4332C107.81 41.1375 107.313 40.854 106.807 40.5827C106.301 40.3144 105.789 40.0553 105.274 39.8114C104.756 39.5675 104.231 39.3328 103.701 39.1133C103.174 38.8938 102.64 38.6896 102.1 38.4976C101.561 38.3025 101.015 38.1226 100.47 37.958C99.9209 37.7903 99.3691 37.6379 98.8143 37.4977C98.2595 37.3575 97.6986 37.2355 97.1377 37.1227C96.5768 37.0099 96.0128 36.9124 95.4458 36.827C94.8788 36.7447 94.3118 36.6746 93.7418 36.6167C93.1717 36.5618 92.5986 36.5191 92.0286 36.4917C91.4555 36.4612 90.8824 36.449 90.3123 36.449C89.7392 36.449 89.1661 36.4612 88.593 36.4917C88.023 36.5191 87.4499 36.5618 86.8829 36.6167C86.3098 36.6746 85.7428 36.7447 85.1758 36.827C84.6088 36.9124 84.0479 37.0099 83.4839 37.1227C82.923 37.2355 82.3652 37.3575 81.8104 37.4977C81.2525 37.6379 80.7008 37.7903 80.1551 37.958C79.6064 38.1226 79.0638 38.3025 78.5242 38.4976C77.9846 38.6896 77.4481 38.8938 76.9207 39.1133C76.3934 39.3328 75.866 39.5675 75.3508 39.8114C74.8326 40.0553 74.3205 40.3144 73.8175 40.5827C73.3115 40.854 72.8115 41.1375 72.3238 41.4332C71.8299 41.7258 71.3483 42.0306 70.8697 42.3507C70.3941 42.6678 69.9277 43 69.4644 43.3415C69.0071 43.6829 68.556 44.0334 68.1109 44.3992C67.6689 44.762 67.236 45.137 66.8123 45.5211C66.3886 45.9052 65.9709 46.3014 65.5685 46.7069C65.1631 47.1123 64.7668 47.5269 64.3827 47.9506C63.9986 48.3743 63.6237 48.8103 63.2609 49.2523C62.8981 49.6943 62.5445 50.1485 62.2031 50.6088C61.8617 51.0661 61.5325 51.5355 61.2154 52.0141C60.8953 52.4897 60.5905 52.9744 60.2948 53.4652C59.9991 53.956 59.7187 54.4559 59.4474 54.9619C59.1791 55.4649 58.92 55.977 58.6761 56.4953C58.4322 57.0135 58.1975 57.5378 57.978 58.0682C57.7586 58.5987 57.5543 59.1321 57.3623 59.6717C57.1702 60.2113 56.9873 60.7569 56.8227 61.3056C56.655 61.8543 56.5026 62.403 56.3654 62.9609C56.2222 63.5157 56.1002 64.0766 55.9874 64.6375C55.8746 65.2015 55.7771 65.7654 55.6917 66.3324C55.6094 66.8994 55.5363 67.4664 55.4814 68.0365C55.4265 68.6065 55.3839 69.1796 55.3534 69.7527C55.3259 70.3258 55.3137 70.8989 55.3137 71.469V134.531C55.3137 135.104 55.3259 135.677 55.3534 136.25C55.3839 136.823 55.4265 137.394 55.4814 137.964C55.5363 138.537 55.6094 139.104 55.6917 139.671C55.7771 140.238 55.8746 140.805 55.9874 141.366C56.1002 141.926 56.2222 142.487 56.3654 143.042C56.5026 143.597 56.655 144.152 56.8227 144.701C56.9873 145.249 57.1702 145.792 57.3623 146.331C57.5543 146.871 57.7586 147.407 57.978 147.935C58.1975 148.465 58.4322 148.99 58.6761 149.505C58.92 150.026 59.1791 150.535 59.4474 151.041C59.7187 151.547 59.9991 152.047 60.2948 152.538C60.5905 153.029 60.8953 153.513 61.2154 153.989C61.5325 154.468 61.8617 154.934 62.2031 155.394C62.5445 155.858 62.8981 156.306 63.2609 156.751C63.6237 157.193 63.9986 157.626 64.3827 158.052C64.7668 158.476 65.1631 158.891 65.5685 159.296C65.9709 159.702 66.3886 160.095 66.8123 160.482C67.236 160.866 67.6689 161.241 68.1109 161.604C68.556 161.97 69.0071 162.32 69.4644 162.662C69.9277 163.003 70.3941 163.332 70.8697 163.652C71.3483 163.969 71.8299 164.277 72.3238 164.573C72.8115 164.866 73.3115 165.149 73.8175 165.417C74.3205 165.689 74.8326 165.948 75.3508 166.192C75.866 166.439 76.3934 166.667 76.9207 166.887C77.4481 167.106 77.9846 167.313 78.5242 167.509C79.0638 167.701 79.6064 167.877 80.1551 168.045C80.7008 168.213 81.2525 168.365 81.8104 168.505C82.3652 168.643 82.923 168.771 83.4839 168.88C84.0479 168.993 84.6088 169.091 85.1758 169.176C85.7428 169.258 86.3098 169.328 86.8829 169.386C87.4499 169.441 88.023 169.484 88.593 169.511C89.1661 169.539 89.7392 169.554 90.3123 169.554C90.8824 169.554 91.4555 169.539 92.0286 169.511C92.5986 169.484 93.1717 169.441 93.7418 169.386C94.3118 169.328 94.8788 169.258 95.4458 169.176C96.0128 169.091 96.5768 168.993 97.1377 168.88C97.6986 168.771 98.2595 168.643 98.8143 168.505C99.3691 168.365 99.9209 168.213 100.47 168.045C101.015 167.877 101.561 167.701 102.1 167.509C102.64 167.313 103.174 167.106 103.701 166.887C104.231 166.667 104.756 166.436 105.274 166.192C105.789 165.948 106.301 165.689 106.807 165.417C107.313 165.149 107.81 164.866 108.301 164.573C108.792 164.277 109.276 163.969 109.752 163.652C110.227 163.332 110.697 163.003 111.157 162.662C111.615 162.32 112.069 161.97 112.511 161.604C112.953 161.241 113.386 160.866 113.809 160.482C114.236 160.095 114.651 159.702 115.053 159.296C115.462 158.891 115.855 158.476 116.239 158.052C116.623 157.626 116.998 157.193 117.361 156.751C117.723 156.306 118.077 155.858 118.419 155.394C118.76 154.934 119.089 154.468 119.406 153.989C119.726 153.513 120.034 153.029 120.327 152.538C120.623 152.047 120.903 151.547 121.174 151.041C121.443 150.535 121.702 150.026 121.946 149.505C122.192 148.99 122.424 148.465 122.644 147.935C122.863 147.407 123.067 146.871 123.262 146.331C123.454 145.792 123.634 145.249 123.802 144.701C123.967 144.152 124.119 143.597 124.259 143.042C124.399 142.487 124.524 141.926 124.634 141.366C124.747 140.805 124.845 140.238 124.93 139.671C125.012 139.104 125.085 138.537 125.14 137.964C125.195 137.394 125.238 136.823 125.268 136.25C125.296 135.677 125.311 135.104 125.311 134.531V127.526H132.31V134.531C132.31 135.22 132.295 135.906 132.261 136.595C132.225 137.284 132.176 137.97 132.109 138.652C132.042 139.335 131.956 140.021 131.856 140.701C131.755 141.381 131.636 142.058 131.502 142.734C131.368 143.408 131.219 144.079 131.051 144.746C130.883 145.414 130.7 146.075 130.502 146.734C130.304 147.392 130.088 148.048 129.856 148.697C129.621 149.343 129.374 149.986 129.112 150.62C128.85 151.258 128.57 151.883 128.277 152.504C127.984 153.129 127.673 153.742 127.35 154.349C127.027 154.955 126.689 155.556 126.335 156.144C125.982 156.736 125.613 157.315 125.232 157.888C124.851 158.461 124.454 159.022 124.046 159.574C123.637 160.128 123.214 160.671 122.778 161.201C122.342 161.732 121.891 162.253 121.43 162.765C120.97 163.274 120.494 163.771 120.01 164.259C119.522 164.747 119.025 165.219 118.516 165.683C118.007 166.146 117.486 166.594 116.955 167.03C116.425 167.466 115.882 167.89 115.33 168.298C114.779 168.71 114.218 169.106 113.645 169.487C113.075 169.868 112.492 170.237 111.904 170.59C111.313 170.944 110.715 171.286 110.109 171.609C109.502 171.932 108.889 172.243 108.267 172.535C107.646 172.831 107.021 173.108 106.383 173.374C105.749 173.636 105.109 173.883 104.46 174.114C103.814 174.346 103.161 174.563 102.503 174.761C101.844 174.962 101.183 175.145 100.515 175.312C99.8508 175.48 99.1771 175.629 98.5064 175.767C97.8297 175.898 97.1529 176.017 96.4731 176.117C95.7934 176.218 95.1136 176.303 94.4277 176.37C93.7448 176.437 93.0589 176.489 92.3731 176.523C91.6841 176.556 90.9982 176.571 90.3123 176.571Z" fill="#E2E8F0"/>
<path d="M70.3056 105.272C76.7956 106.867 81.8316 110.037 85.4043 114.771C88.974 119.514 90.7603 125.398 90.7603 132.437C90.7603 142.447 87.6144 150.032 81.3316 155.199C75.0428 160.366 66.0409 162.948 54.3198 162.948H11.0357V50.319H52.5701C63.9649 50.319 72.7504 52.8491 78.9204 57.9125C85.0994 62.9637 88.1936 70.2859 88.1936 79.8762C88.1936 86.0461 86.6206 91.2955 83.4808 95.6181C80.3348 99.9285 75.9421 103.148 70.3056 105.272ZM17.7422 102.55H51.7744C61.3494 102.55 68.6442 100.532 73.6497 96.4838C78.6643 92.4386 81.1731 86.5796 81.1731 78.9037C81.1731 63.9971 71.3695 56.5438 51.7744 56.5438H17.7422V102.55ZM54.1644 156.726C64.1722 156.726 71.5951 154.809 76.442 150.971C81.2951 147.133 83.7216 141.222 83.7216 133.235C83.7216 125.252 81.2432 119.207 76.2865 115.103C71.336 111.003 63.9649 108.949 54.1644 108.949H17.7422V156.726H54.1644Z" fill="#E2E8F0"/>
<path d="M132.76 101.892C132.76 101.813 132.787 101.743 132.845 101.685C132.909 101.621 132.982 101.587 133.064 101.587H135.991C136.07 101.587 136.14 101.621 136.198 101.685C136.253 101.743 136.284 101.813 136.284 101.892V118.768C136.284 118.859 136.253 118.933 136.198 118.988C136.14 119.045 136.07 119.073 135.991 119.073H133.064C132.982 119.073 132.909 119.045 132.845 118.988C132.787 118.933 132.76 118.859 132.76 118.768V111.927C132.76 111.848 132.717 111.805 132.638 111.805H128.65C128.559 111.805 128.516 111.848 128.516 111.927V118.768C128.516 118.859 128.486 118.933 128.431 118.988C128.373 119.045 128.303 119.073 128.224 119.073H125.297C125.215 119.073 125.145 119.045 125.09 118.988C125.032 118.933 125.005 118.859 125.005 118.768V101.892C125.005 101.813 125.032 101.743 125.09 101.685C125.145 101.621 125.215 101.587 125.297 101.587H128.224C128.303 101.587 128.373 101.621 128.431 101.685C128.486 101.743 128.516 101.813 128.516 101.892V108.635C128.516 108.717 128.559 108.757 128.65 108.757H132.638C132.717 108.757 132.76 108.717 132.76 108.635V101.892Z" fill="#E2E8F0"/>
<path d="M149.315 119.073C149.135 119.073 149.022 118.994 148.974 118.829L148.401 116.378C148.376 116.314 148.33 116.281 148.266 116.281H143.596C143.529 116.281 143.49 116.314 143.474 116.378L142.901 118.829C142.853 118.994 142.743 119.073 142.572 119.073H139.56C139.341 119.073 139.255 118.963 139.304 118.744L143.804 101.843C143.852 101.673 143.965 101.587 144.145 101.587H147.767C147.952 101.587 148.071 101.673 148.12 101.843L152.62 118.744L152.644 118.853C152.644 119 152.549 119.073 152.364 119.073H149.315ZM144.145 113.403C144.127 113.452 144.136 113.488 144.169 113.513C144.209 113.537 144.246 113.549 144.279 113.549H147.571C147.602 113.549 147.635 113.537 147.669 113.513C147.699 113.488 147.709 113.452 147.693 113.403L145.974 106.16C145.956 106.096 145.931 106.062 145.901 106.062C145.867 106.062 145.843 106.096 145.828 106.16L144.145 113.403Z" fill="#E2E8F0"/>
<path d="M161.153 119.268C160.022 119.268 159.022 119.045 158.153 118.597C157.29 118.152 156.62 117.512 156.141 116.683C155.669 115.847 155.434 114.878 155.434 113.781V106.83C155.434 105.751 155.669 104.8 156.141 103.977C156.62 103.157 157.29 102.523 158.153 102.075C159.022 101.621 160.022 101.392 161.153 101.392C162.28 101.392 163.277 101.618 164.14 102.063C165.009 102.502 165.679 103.12 166.152 103.916C166.631 104.715 166.871 105.644 166.871 106.708V106.83C166.871 106.922 166.841 106.998 166.786 107.062C166.728 107.129 166.655 107.16 166.567 107.16L163.652 107.281C163.448 107.281 163.347 107.193 163.347 107.013V106.684C163.347 106.001 163.146 105.452 162.75 105.038C162.351 104.623 161.817 104.416 161.153 104.416C160.485 104.416 159.951 104.623 159.555 105.038C159.156 105.452 158.958 106.001 158.958 106.684V114C158.958 114.683 159.156 115.232 159.555 115.646C159.951 116.055 160.485 116.256 161.153 116.256C161.817 116.256 162.351 116.055 162.75 115.646C163.146 115.232 163.347 114.683 163.347 114V113.683C163.347 113.497 163.448 113.403 163.652 113.403L166.567 113.525C166.655 113.525 166.728 113.558 166.786 113.622C166.841 113.68 166.871 113.75 166.871 113.829V113.903C166.871 114.97 166.631 115.911 166.152 116.731C165.679 117.545 165.009 118.17 164.14 118.609C163.277 119.048 162.28 119.268 161.153 119.268Z" fill="#E2E8F0"/>
<path d="M175.857 119.292C174.71 119.292 173.698 119.061 172.82 118.597C171.948 118.134 171.272 117.482 170.784 116.634C170.302 115.781 170.065 114.79 170.065 113.659V107.013C170.065 105.901 170.302 104.922 170.784 104.075C171.272 103.221 171.948 102.563 172.82 102.099C173.698 101.63 174.71 101.392 175.857 101.392C177.003 101.392 178.018 101.63 178.905 102.099C179.789 102.563 180.472 103.221 180.953 104.075C181.432 104.922 181.673 105.901 181.673 107.013V113.659C181.673 114.79 181.432 115.781 180.953 116.634C180.472 117.482 179.789 118.134 178.905 118.597C178.018 119.061 177.003 119.292 175.857 119.292ZM175.857 116.281C176.555 116.281 177.112 116.055 177.527 115.598C177.948 115.134 178.161 114.537 178.161 113.805V106.916C178.161 106.16 177.948 105.556 177.527 105.099C177.112 104.645 176.555 104.416 175.857 104.416C175.174 104.416 174.625 104.645 174.21 105.099C173.796 105.556 173.589 106.16 173.589 106.916V113.805C173.589 114.537 173.796 115.134 174.21 115.598C174.625 116.055 175.174 116.281 175.857 116.281ZM174.479 100.039C174.363 100.039 174.29 100.008 174.259 99.9411C174.226 99.8771 174.235 99.7948 174.284 99.6973L175.71 97.1488C175.789 97.0116 175.911 96.9415 176.076 96.9415H178.478C178.606 96.9415 178.688 96.9842 178.722 97.0635C178.762 97.1366 178.746 97.222 178.673 97.3195L176.832 99.868C176.75 99.9838 176.631 100.039 176.478 100.039H174.479Z" fill="#E2E8F0"/>
<path d="M193.859 101.892C193.859 101.813 193.886 101.743 193.944 101.685C193.999 101.621 194.072 101.587 194.164 101.587H197.054C197.133 101.587 197.203 101.621 197.261 101.685C197.325 101.743 197.358 101.813 197.358 101.892V118.768C197.358 118.859 197.325 118.933 197.261 118.988C197.203 119.045 197.133 119.073 197.054 119.073H194.005C193.841 119.073 193.728 119 193.664 118.853L188.896 108.684C188.853 108.635 188.817 108.611 188.786 108.611C188.753 108.611 188.738 108.644 188.738 108.708L188.762 118.768C188.762 118.859 188.731 118.933 188.677 118.988C188.619 119.045 188.549 119.073 188.469 119.073H185.567C185.485 119.073 185.415 119.045 185.36 118.988C185.302 118.933 185.275 118.859 185.275 118.768V101.892C185.275 101.813 185.302 101.743 185.36 101.685C185.415 101.621 185.485 101.587 185.567 101.587H188.591C188.753 101.587 188.872 101.667 188.945 101.819L193.713 111.976C193.743 112.034 193.777 112.062 193.81 112.062C193.841 112.062 193.859 112.025 193.859 111.952V101.892Z" fill="#E2E8F0"/>
</svg>
