<svg width="206" height="206" viewBox="0 0 206 206" fill="none" xmlns="http://www.w3.org/2000/svg">
<path d="M123.695 1.15617C121.349 0.421176 119.632 0.140391 118.776 0C117.666 0.0385386 115.88 0.189942 113.438 0.58359C111.131 0.955215 109.254 1.39841 107.938 1.88841C106.625 2.3784 104.791 3.09413 102.617 4.28058C95.2971 8.10694 88.261 13.7006 81.3543 20.9432C74.4696 28.3206 67.94 37.0332 62.0573 47.1744C58.6824 53.0103 56.1058 57.7423 54.1871 61.3953C52.2932 65.1804 51.4013 67.4156 51.5087 68.0928C51.7509 69.5848 52.4473 70.4492 53.8926 70.7713C55.2222 71.253 56.4224 70.9199 57.3556 69.794C57.6033 69.6151 58.0382 68.8498 58.9054 67.3165C59.8138 66.0557 60.6589 64.3876 61.6169 62.5625C67.0701 52.3524 72.0169 44.1739 76.4544 38.0242C80.779 32.0369 85.4615 26.5451 90.7991 21.6451C97.337 15.5752 103.506 11.5176 109.259 9.19429C115.01 6.8737 120.006 6.76358 123.951 8.77311C126.993 10.3697 129.624 12.8693 131.711 16.2937C133.679 19.8723 135.196 24.0841 136.005 29.1052C136.773 33.8565 136.726 38.7371 136.135 43.7059C135.433 48.8343 134.092 54.3399 131.961 60.1152C130.381 64.1315 128.782 68.0102 126.885 71.798C124.991 75.5831 122.916 79.1232 120.661 82.41C116.381 88.6726 111.949 93.9827 107.316 98.0733C102.592 102.456 98.127 104.988 93.9648 105.938C91.2726 106.511 89.486 106.662 88.5831 106.249C87.5701 105.996 86.9865 104.975 86.8599 103.326C86.4194 100.611 87.8867 96.7548 91.234 91.6181C94.6062 86.619 99.1978 81.419 104.783 76.3401C106.484 74.8123 108.051 73.3066 109.504 71.9577C110.958 70.6088 111.8 69.7775 112.026 69.4609C112.959 68.3378 113.033 67.0715 112.271 65.8025C111.373 64.5555 110.157 63.9141 108.8 64.1343C108.392 64.2004 107.621 64.6023 106.487 65.3428C105.375 66.2182 104.263 67.0935 103.038 68.1286C94.0033 75.9933 87.526 83.3047 83.6253 90.2004C79.4769 97.275 78.4529 103.012 80.3771 107.158C81.068 108.856 81.9654 110.103 82.9564 111.058L83.1133 111.171C84.1016 112.126 85.3183 112.765 86.9232 113.203C88.1179 113.706 89.1337 113.96 90.0834 113.805C90.9202 113.811 92.5471 113.547 94.9696 113.015C97.1388 112.666 98.7244 112.132 100.037 111.642C101.216 111.174 102.62 110.389 104.39 109.269C111.734 104.741 118.822 97.7458 125.358 88.1964C131.912 78.7846 136.823 68.6599 140.316 57.5139C142.061 51.9395 143.171 46.7477 143.647 41.9359C144.01 37.2837 143.787 32.4443 142.997 27.5608C141.88 20.6376 139.559 14.887 136.327 10.3945C132.961 5.92674 128.705 2.85188 123.695 1.15617ZM87.526 34.1483L86.4414 34.3244C85.7615 34.4345 85.1476 34.9493 84.7375 35.8522C84.3273 36.7551 83.5896 39.1005 82.6454 42.7342C82.1388 44.7657 81.4259 47.2487 80.779 50.1392C79.8816 53.2085 78.9346 56.8422 77.9436 61.0402C72.4078 82.8202 68.3474 99.0726 65.8974 109.773C63.3126 120.495 62.1537 126.254 62.2858 127.066C62.3739 127.611 62.4399 128.018 62.7978 128.516C63.1557 129.015 63.4722 129.243 63.9237 129.447C64.8459 129.995 65.5699 130.157 66.0901 129.934C66.6324 129.846 67.1307 129.488 67.8354 128.676C68.0639 128.362 68.8209 126.152 70.0872 121.907C71.2378 117.825 72.4821 112.608 74.0071 106.513C74.5357 104.619 75.0202 102.453 75.7111 99.8324C76.2892 97.3741 76.9801 94.7562 77.6491 92.0007C78.8052 87.0787 80.1871 81.8429 81.5277 76.3374C82.8876 70.964 84.063 66.1796 85.1697 61.822C86.7855 55.4355 88.217 49.6326 89.3704 44.7134C90.5266 39.7915 91.0826 37.1956 91.0166 36.7882C90.8624 35.8385 90.4605 35.0677 89.8301 34.6135C89.6925 34.6355 89.6925 34.6355 89.6705 34.4979C89.0621 34.1785 88.3409 34.0189 87.526 34.1483Z" fill="#E2E8F0"/>
<path d="M134.301 205.24C134.975 205.967 135.834 206.107 136.919 205.931C137.733 205.799 138.504 205.397 139.187 204.45C139.528 203.977 139.669 203.121 139.765 201.989C139.724 200.883 139.487 198.554 139.234 195.253C138.102 186.524 138.262 177.167 139.421 167.095C140.602 157.155 143.107 144.219 146.942 128.281C149.273 118.574 150.685 111.803 150.908 108.007C151.073 106.448 151.126 105.047 150.95 103.963C150.688 102.333 150.082 101.177 149.273 100.472C148.147 99.539 146.818 99.06 145.461 99.2775C143.988 99.6546 142.449 100.461 140.996 101.81C138.565 104.012 134.994 108.626 130.439 115.769C125.767 123.067 121.434 130.728 117.167 138.799C116.209 140.624 115.477 142.136 114.839 143.352C114.065 144.591 113.608 145.221 113.608 145.221C113.473 145.243 113.523 144.679 113.845 143.234C114.035 141.811 114.335 140.231 114.706 138.221C117.03 125.869 118.684 116.273 119.51 109.317C120.336 102.361 120.611 97.1633 120.041 93.6343C119.733 91.7348 119.356 90.2649 118.64 89.2656C117.922 88.2691 116.953 87.4488 115.871 86.7881C114.971 86.3779 113.839 86.2816 112.755 86.455C111.125 86.7193 109.449 87.5479 107.453 88.9821C104.117 91.611 100.345 95.8392 96.2491 101.515C90.3306 109.711 84.6764 119.535 79.2396 130.72C73.69 142.058 68.702 154.284 64.2728 167.392C63.4029 169.76 62.7367 171.678 62.1421 173.165C61.5475 174.654 61.1153 175.419 61.0713 175.15C60.6886 174.514 60.9502 171.827 61.564 166.993C62.0843 162.454 62.9927 156.877 64.2012 150.554C64.76 147.121 65.5913 143.644 66.3786 139.898C67.0751 136.443 67.8844 132.831 68.7158 129.354C69.8471 124.298 70.4307 121.002 70.3234 119.486C70.1059 118.129 69.2746 117.289 67.6917 116.986C66.5631 116.89 65.6354 117.179 65.0435 117.831C64.3168 118.506 63.6093 120.152 62.9184 122.772C62.4587 124.237 62.065 126.112 61.5778 128.278C60.9804 130.604 60.2895 133.222 59.6839 136.382C57.7432 145.051 56.3035 152.525 55.4116 159.073C54.3848 165.647 53.6966 171.744 53.5094 177.484C53.3002 183.089 53.3718 186.976 53.7654 189.417L53.8535 189.962C54.2471 192.404 55.3262 193.902 56.9944 194.747C57.7597 195.179 58.346 195.363 58.7534 195.297C59.048 195.388 59.7031 195.143 60.4519 194.606C61.5861 193.866 62.7229 192.288 63.8654 189.877C64.8729 187.485 66.8191 182.299 69.437 174.357C74.5517 159.464 79.6801 146.383 85.1168 135.201C90.4159 124.041 95.9573 114.374 101.873 106.176C104.015 103.046 106.22 100.324 108.356 98.0277C110.492 95.7346 111.811 94.4078 112.488 94.2977C113.575 94.1215 113.531 98.1681 112.631 106.388C111.596 114.632 109.732 125.517 107.178 139.019C104.788 150.964 103.437 158.98 103.01 163.225C102.58 167.472 103.156 170.164 104.573 171.188C105.248 171.915 106.242 172.033 107.304 171.722C108.392 171.546 109.162 171.144 109.845 170.197C110.071 169.884 110.938 168.35 112.309 165.622C113.542 162.916 115.004 159.896 116.694 156.56C119.78 149.797 122.61 144.046 125.073 139.471C127.402 134.918 130.095 130.026 133.057 125.093C135.361 121.239 137.59 117.815 139.754 114.82C141.802 111.984 143.005 110.814 143.093 111.357C143.137 111.629 142.884 112.645 142.625 114.498C142.232 116.369 141.725 118.401 141.26 120.705C139.922 126.213 138.881 130.976 138.001 135.017C137.009 139.215 136.222 142.964 135.617 146.124C134.232 152.197 133.255 157.367 132.784 161.342C132.176 165.339 131.724 169.451 131.567 173.652C131.124 181.244 131.11 188.071 131.713 194.378C132.176 200.709 133.04 204.329 134.301 205.24Z" fill="#E2E8F0"/>
</svg>
