<svg width="206" height="206" viewBox="0 0 206 206" fill="none" xmlns="http://www.w3.org/2000/svg">
<path d="M102.03 31.0723C102.03 32.6179 101.288 34.6123 98.9595 39C96.1856 44.3848 95.938 45.0829 95.8884 48.0745C95.8884 50.2184 96.1361 51.8638 96.7305 52.9109C97.7707 54.9052 100.891 57.3982 101.535 56.7501C101.832 56.4509 102.328 54.8055 102.773 53.0604C103.417 50.1686 103.467 50.0689 103.269 52.163C103.12 53.5092 102.873 55.1545 102.724 55.9024L102.377 57.2487L103.913 56.1019C110.253 51.5646 110.6 43.2879 104.854 33.0168C102.526 28.8286 102.03 28.4796 102.03 31.0723ZM103.863 48.1742C103.715 48.5731 103.566 48.4235 103.566 47.875C103.516 47.3266 103.665 47.0274 103.814 47.2268C103.962 47.3764 104.012 47.8252 103.863 48.1742Z" fill="#E2E8F0"/>
<path d="M70.5275 43.388C70.6761 43.8367 70.8247 46.3796 70.8247 49.072C70.8247 53.4597 70.9238 54.1577 71.964 55.3045C72.707 56.202 73.7472 56.7006 75.1836 56.9L77.3135 57.1992L77.0163 55.7532C76.8182 54.9555 76.3724 53.1107 75.9761 51.6149C75.5303 50.1689 75.3322 48.8726 75.4313 48.7729C75.8275 48.3241 77.2145 52.4625 77.5612 55.105L77.9079 57.6978L79.0967 56.3515C80.5827 54.6065 80.5331 52.5123 79.0472 49.3213C77.8088 46.6289 75.5303 44.3353 72.9546 43.2384C70.8743 42.3908 70.1313 42.3908 70.5275 43.388Z" fill="#E2E8F0"/>
<path d="M134.078 45.3823C133.93 47.0277 133.434 48.1246 132.345 49.2215C129.521 52.2629 129.075 54.5066 130.809 56.7503C132.642 59.0937 133.434 58.3957 135.218 52.8114C135.961 50.5677 136.109 50.2685 135.911 51.7145C135.762 52.7615 135.218 54.6063 134.722 55.803C133.583 58.5453 134.326 58.8444 136.753 56.6506C139.032 54.6063 139.329 51.1161 137.496 47.4265C136.803 45.9307 135.812 44.3851 135.267 43.8865C134.375 43.0887 134.326 43.1386 134.078 45.3823Z" fill="#E2E8F0"/>
<path d="M84.2482 53.6092C80.7809 61.6366 83.9014 69.0159 90.7369 69.0159H92.322L90.5388 67.1212C89.5482 66.124 88.4089 64.4786 87.9631 63.5313C87.5173 62.584 87.4183 62.2349 87.765 62.7834C89.2014 65.0271 93.0155 68.5173 93.7089 68.268C94.7491 67.8691 95.5912 65.8248 95.5912 63.8803C95.5912 61.3375 94.0061 59.2434 90.7865 57.6977C88.3098 56.5011 87.7154 55.9526 86.6257 53.6591L85.3379 51.0165L84.2482 53.6092Z" fill="#E2E8F0"/>
<path d="M145.52 55.9526C142.895 58.5952 140.468 61.4372 140.22 62.1851C139.576 63.9302 139.527 67.0215 140.171 68.0187C140.765 68.966 141.756 68.0187 145.471 63.1823C147.006 61.1879 148.294 59.5425 148.443 59.5425C149.087 59.5425 146.115 64.1296 143.985 66.3733L141.508 69.0159H143.737C147.402 69.0159 150.424 65.6254 151.563 60.1907C152.108 57.6478 151.563 52.3627 150.672 51.4652C150.474 51.2658 148.145 53.2602 145.52 55.9526Z" fill="#E2E8F0"/>
<path d="M60.9182 52.8613C58.7387 58.5952 59.3331 64.0299 62.5032 67.0215C63.8406 68.2181 67.0107 69.1654 68.3976 68.7666C69.2892 68.4674 69.1901 68.268 67.3574 66.3733C65.5743 64.6282 63.4939 61.5369 64.0387 61.5369C64.1873 61.5369 64.8313 62.3845 65.4752 63.4316C66.1686 64.4288 67.6546 65.9246 68.7939 66.7223C70.6761 68.0685 70.9238 68.1184 71.6668 67.3705C72.1126 66.9716 72.5584 65.5257 72.6574 64.1795C72.8556 62.0854 72.707 61.5369 71.6173 60.1907C70.8247 59.2433 69.2892 58.296 67.9023 57.7974C65.3266 56.9498 63.9892 55.7532 62.7014 53.1605C61.7107 51.2159 61.5126 51.2159 60.9182 52.8613Z" fill="#E2E8F0"/>
<path d="M117.089 58.1466C114.018 64.4289 113.819 65.127 114.117 67.2211C114.315 68.4676 114.909 69.9634 115.404 70.6115C116.593 72.0575 116.791 71.8082 118.872 66.2737C121.15 60.3404 121.299 59.9914 121.002 62.285C120.804 63.9303 119.664 67.2211 118.03 70.8608C117.584 71.9079 119.615 71.6087 121.101 70.4121C124.568 67.6698 125.41 60.9886 122.884 55.8032C120.457 50.8172 120.754 50.6677 117.089 58.1466Z" fill="#E2E8F0"/>
<path d="M38.6284 59.9412C38.2817 60.6891 37.8854 63.1821 37.7864 65.5255C37.5882 69.0157 37.7368 70.2622 38.6284 72.6056C39.9658 76.1955 42.3929 78.489 44.8696 78.489H46.6527L44.9191 76.0957C43.235 73.8022 41.6004 70.4616 41.6004 69.3148C41.6004 69.0157 42.2939 70.0129 43.1359 71.5086C44.5228 74.1014 47.3462 77.4918 48.0397 77.4918C48.6836 77.4918 49.5257 74.8991 49.5257 72.9047C49.5257 70.0627 47.6929 67.121 44.4733 64.9272C41.9967 63.1821 41.2041 62.2846 39.8668 59.6919L39.2724 58.5451L38.6284 59.9412Z" fill="#E2E8F0"/>
<path d="M102.278 64.9769C102.278 67.4699 102.031 68.1679 100.297 70.7108C98.6624 73.104 98.3157 74.0514 98.3157 76.0458C98.3157 77.9903 98.5633 78.6883 99.7521 79.9348C100.594 80.7824 101.535 81.4805 101.882 81.4805C102.774 81.4805 104.061 79.2866 104.804 76.5942C105.25 74.899 105.448 74.6497 105.448 75.5472C105.498 76.2951 105.151 77.7908 104.755 78.9376C103.962 81.281 104.309 81.4805 106.736 79.9847C111.293 77.1427 110.748 70.3119 105.597 64.8772C102.575 61.6862 102.278 61.6862 102.278 64.9769Z" fill="#E2E8F0"/>
<path d="M168.206 64.3787C166.869 65.5753 164.689 67.1209 163.451 67.7691C158.448 70.312 156.616 73.0543 157.26 76.9932C157.458 78.0901 157.755 79.0873 157.953 79.187C158.399 79.4862 162.312 76.9932 163.947 75.4475C164.64 74.7993 165.829 73.4531 166.572 72.5058C167.364 71.5086 167.81 71.2094 167.612 71.7579C166.918 73.7024 164.442 76.8935 162.411 78.3892C160.578 79.7853 160.479 79.9349 161.47 80.2341C164.491 81.1814 169.395 78.838 171.773 75.2979C173.11 73.2038 173.358 72.4559 173.358 69.8134C173.358 66.9714 172.119 63.0823 171.079 62.3843C170.832 62.2347 169.544 63.1322 168.206 64.3787Z" fill="#E2E8F0"/>
<path d="M78.4034 67.0709C77.4127 68.3673 75.8277 71.8575 75.2828 74.151C74.7875 76.0457 74.837 76.6939 75.5305 78.1897C76.6202 80.4334 78.7501 82.2782 81.0781 82.9263C83.4557 83.6244 84.0501 83.1258 82.4155 81.8294C81.0781 80.7824 78.7501 76.3449 78.7996 74.9986C78.7996 74.5998 79.0473 74.8989 79.3445 75.7465C80.137 77.9902 82.6137 81.281 84.0006 81.9291C85.0408 82.3779 85.2884 82.2782 85.9819 81.1813C87.3193 79.1869 86.2296 76.4446 82.7127 73.0541C80.9791 71.3589 79.6912 69.6637 79.4931 68.7662C79.295 67.9186 79.0968 67.0709 79.0473 66.8216C78.9978 66.6222 78.7006 66.7219 78.4034 67.0709Z" fill="#E2E8F0"/>
<path d="M130.165 68.6667C129.125 69.9132 126.945 71.9076 125.261 73.1042C120.803 76.2454 120.11 77.3423 120.11 81.4807C120.11 83.3753 120.258 85.0706 120.457 85.27C121.249 86.0179 125.558 82.079 127.936 78.4891C128.877 77.0431 129.224 76.6941 129.026 77.4919C128.382 79.7356 127.193 81.6302 124.964 84.0235C122.983 86.1675 122.884 86.4168 123.775 86.7159C126.945 87.7131 131.998 83.9238 133.484 79.4364C134.524 76.2953 134.276 71.6084 132.939 68.6168L131.998 66.4729L130.165 68.6667Z" fill="#E2E8F0"/>
<path d="M58.6398 72.9045C57.5005 74.5998 57.1043 79.486 57.9463 81.4804C59.3333 84.8709 64.5837 88.012 67.6548 87.2641L68.9922 86.9151L67.1594 85.6686C65.3267 84.4221 62.4043 80.7824 62.4043 79.835C62.4043 79.5359 63.1968 80.2339 64.1379 81.3308C65.9211 83.4748 70.6763 86.8154 71.1716 86.3168C71.3202 86.1672 71.4688 84.8709 71.4688 83.4748C71.5183 80.2838 70.4781 78.788 66.565 76.5942C64.98 75.6967 62.751 74.151 61.6118 73.2037L59.5314 71.5085L58.6398 72.9045Z" fill="#E2E8F0"/>
<path d="M144.629 75.0486C138.388 78.5886 137.199 79.6855 136.852 82.3281C136.406 85.8681 137.446 85.6687 143.539 81.1315C146.164 79.1371 146.957 78.7382 146.362 79.6855C145.421 81.0816 143.143 82.9264 140.765 84.1729C138.487 85.3695 139.23 86.1174 142.449 85.8681C146.511 85.5191 150.077 82.2284 150.87 78.09C151.217 76.2951 150.721 72.0071 150.176 72.057C149.978 72.057 147.502 73.4032 144.629 75.0486Z" fill="#E2E8F0"/>
<path d="M25.75 81.8798C25.75 83.5251 28.1771 87.9128 30.208 89.957C34.022 93.7962 37.4397 94.3946 41.2538 91.9514C42.5416 91.1537 43.5818 90.2562 43.5818 90.0069C43.5818 89.8075 41.7491 89.5083 39.5201 89.3587C37.0435 89.2091 34.8145 88.8103 33.9229 88.3117C32.0407 87.3145 32.6846 87.2646 36.1519 88.212C39.8173 89.2091 44.0276 89.2091 44.3743 88.212C44.8201 87.115 43.7304 84.8215 42.1454 83.2758C40.3126 81.5307 37.836 81.1319 34.864 82.1789C31.8425 83.226 30.4556 83.1761 27.8799 81.9795C25.8986 81.1319 25.75 81.082 25.75 81.8798Z" fill="#E2E8F0"/>
<path d="M48.4857 87.1146C47.7922 89.807 48.238 93.5465 49.5258 95.6905C50.9128 97.9341 53.1913 98.682 56.0642 97.9341L58.1941 97.3358L55.9651 96.189C54.7268 95.5409 53.0922 94.2944 52.2501 93.3969L50.7642 91.7515L52.9931 93.4966C58.095 97.5851 59.9277 97.4854 59.9277 93.1975C59.9277 90.6048 58.5903 89.3583 55.1726 88.9095C52.6959 88.5605 52.0025 88.2613 50.6651 86.7656L49.08 85.0205L48.4857 87.1146Z" fill="#E2E8F0"/>
<path d="M168.603 86.9154C166.423 87.9126 164.937 89.6079 164.937 91.0538C164.937 91.5524 164.987 91.9513 165.086 91.9513C165.135 91.9513 166.522 91.2532 168.107 90.4555C169.692 89.6079 171.377 88.9597 171.822 88.9597C172.268 88.9597 171.525 89.5082 170.138 90.2062C167.612 91.4527 165.928 92.5995 165.928 93.0981C165.928 93.5966 170.336 94.0454 172.07 93.7462C173.011 93.5468 174.844 92.5496 176.181 91.5025C177.469 90.4555 179.45 89.1591 180.491 88.6107L182.422 87.6135L180.045 86.7659C176.776 85.669 171.228 85.7188 168.603 86.9154Z" fill="#E2E8F0"/>
<path d="M158.498 88.9092C155.922 89.4078 153.346 90.0062 152.752 90.3552C151.662 90.9535 150.077 93.0476 150.077 93.9451C150.077 94.7428 152.158 94.5434 155.575 93.4465C157.309 92.9479 158.795 92.549 158.845 92.6487C159.191 92.9977 154.04 94.9423 152.851 94.9423C151.068 94.9423 150.82 95.74 152.356 96.7372C153.495 97.4851 153.941 97.535 155.873 96.9865C159.637 95.9893 162.064 93.7955 163.699 89.7569C164.293 88.3608 164.293 87.9619 163.847 88.0118C163.501 88.0616 161.074 88.4605 158.498 88.9092Z" fill="#E2E8F0"/>
<path d="M100.743 89.1591C98.2165 90.256 96.3838 93.098 96.3838 95.8901C96.3838 100.378 99.5044 103.419 104.111 103.419C110.154 103.419 113.522 96.0896 109.609 91.4027C107.281 88.6605 103.863 87.8128 100.743 89.1591Z" fill="#E2E8F0"/>
<path d="M138.635 89.9068C135.762 90.2059 133.731 91.4524 133.731 92.8485C133.731 93.4468 134.227 93.5466 136.406 93.2474C137.892 93.0978 139.527 92.8485 140.022 92.6989C140.517 92.5494 140.27 92.7488 139.428 93.1477C138.635 93.5466 137.199 93.8956 136.357 93.9454C134.425 93.9454 134.227 94.7432 135.911 95.4911C138.635 96.7376 143.44 94.2446 144.579 90.9538C145.074 89.4581 145.074 89.4581 143.242 89.5079C142.251 89.5578 140.171 89.7572 138.635 89.9068Z" fill="#E2E8F0"/>
<path d="M68.2491 90.3061C65.9706 90.6551 66.7136 93.2977 69.4379 94.7436C71.1716 95.6411 74.2921 95.4417 75.6295 94.3448C76.323 93.7963 76.1248 93.6467 73.9949 93.3974L71.5678 93.0983L74.4407 93.0484C76.8678 92.9487 77.2641 92.7991 77.2641 91.9515C77.2641 91.4529 76.8183 90.7549 76.323 90.4557C75.3818 89.9571 71.023 89.9072 68.2491 90.3061Z" fill="#E2E8F0"/>
<path d="M41.1052 95.9402C39.322 96.7379 37.5883 97.436 37.2912 97.436C36.3005 97.436 36.5482 98.1838 37.8855 99.5799C39.4706 101.126 41.0061 101.425 43.3837 100.627C44.9192 100.079 47.2968 98.0343 46.851 97.5855C46.8014 97.5357 45.8603 97.785 44.8201 98.1838C43.7304 98.5827 42.393 98.8819 41.8482 98.8819C41.3033 98.8819 42.1454 98.4331 43.7799 97.9345C47.4454 96.7379 47.9407 96.2892 46.5043 95.2421C45.0183 94.1951 44.8697 94.1951 41.1052 95.9402Z" fill="#E2E8F0"/>
<path d="M176.577 96.9867C174.15 98.1335 172.416 98.1833 170.039 97.1861C166.324 95.5906 162.906 96.8371 160.826 100.477C159.885 102.072 159.835 102.421 160.479 103.169C161.073 103.917 161.767 104.017 164.689 103.768C166.572 103.618 169.098 103.169 170.287 102.721C172.763 101.823 173.011 102.072 170.782 103.219C169.89 103.718 167.463 104.166 164.987 104.316L160.826 104.565L162.609 106.211C165.779 109.152 169.89 109.003 173.655 105.712C175.636 104.017 178.014 100.178 178.806 97.4354C179.302 95.6903 179.252 95.6903 176.577 96.9867Z" fill="#E2E8F0"/>
<path d="M124.816 98.9815C118.574 100.577 112.73 103.918 105.646 109.701L104.061 110.998L101.783 109.402C98.3155 107.009 91.6781 104.017 87.3192 102.871C80.3351 101.076 71.3697 100.627 68.893 101.923C68.4472 102.173 70.3295 102.97 74.094 104.167C83.7529 107.208 90.5884 110.848 96.2847 115.984L98.7118 118.128L97.6716 120.172C95.4921 124.46 94.8977 128.1 94.8977 136.576C94.8977 145.501 95.6903 150.187 98.8604 160.259C100.693 166.143 104.953 176.912 105.3 176.563C105.448 176.464 105.151 174.12 104.705 171.428C103.814 165.644 103.665 153.329 104.458 146.298C105.102 140.714 106.439 133.734 106.934 133.185C107.38 132.737 109.064 138.371 110.203 144.055C112.036 153.279 112.185 165.993 110.451 173.472C110.203 174.569 110.104 175.516 110.203 175.616C110.55 175.965 113.621 167.239 115.058 161.755C116.494 156.32 116.544 155.522 116.593 146.049C116.643 135.23 115.9 130.493 113.274 123.862L112.036 120.87L113.572 118.477C115.652 115.286 121.943 109.003 125.559 106.56C129.224 104.067 135.564 100.876 139.18 99.6795C141.607 98.8319 141.756 98.7322 140.666 98.3832C137.991 97.6353 128.63 97.9843 124.816 98.9815Z" fill="#E2E8F0"/>
<path d="M146.412 100.876C146.263 101.075 147.551 102.671 149.285 104.366C153.248 108.155 152.703 108.405 148.641 104.615L145.62 101.823V103.668C145.62 107.657 151.96 111.247 156.963 110.1L158.944 109.651L155.675 105.662C153.891 103.469 151.96 101.424 151.365 101.075C150.177 100.377 146.808 100.228 146.412 100.876Z" fill="#E2E8F0"/>
<path d="M56.4603 104.715C54.1323 106.211 52.2005 107.707 52.1014 107.906C51.9033 108.504 54.7267 109.701 57.3024 110.15C61.2154 110.798 66.3669 108.255 66.3669 105.612C66.3669 104.117 66.2678 104.117 63.9893 105.612C62.9986 106.311 61.5126 107.009 60.6706 107.158C59.4818 107.407 59.7295 107.158 61.6612 106.111C66.1192 103.768 66.5155 103.419 65.822 102.621C65.4753 102.222 64.336 101.923 62.9491 101.923C60.9678 101.923 60.0267 102.322 56.4603 104.715Z" fill="#E2E8F0"/>
</svg>
