<svg width="120" height="120" viewBox="0 0 92 92" fill="none" xmlns="http://www.w3.org/2000/svg">
<path d="M24.9395 58.1904C24.9395 62.7815 28.661 66.5038 33.252 66.5039H72.6855C67.55 81.0329 53.6958 91.4434 37.4082 91.4434C16.7482 91.4432 0 74.6942 0 54.0342C0.000153729 37.7465 10.4103 23.8922 24.9395 18.7568V58.1904ZM83.1299 0C87.7209 0 91.4431 3.72159 91.4434 8.3125V58.1904C91.4434 62.7816 87.721 66.5039 83.1299 66.5039H72.6855C74.0642 62.6035 74.8164 58.4067 74.8164 54.0342C74.8162 33.3742 58.0682 16.626 37.4082 16.626C33.036 16.626 28.8396 17.3783 24.9395 18.7568V8.3125C24.9397 3.72168 28.6611 0.000159562 33.252 0H83.1299Z" fill="#FAFAFA"/>
</svg>
